  0
SECTION
  2
BLOCKS
  0
ENDSEC
  0
SECTION
  2
ENTITIES
  0
LINE
  8
0
 10
-21
 11
-21
 20
-21
 21
21
  0
LINE
  8
0
 10
-21
 11
21
 20
21
 21
21
  0
LINE
  8
0
 10
21
 11
21
 20
21
 21
0.25
  0
LINE
  8
0
 10
21
 11
11.974
 20
0.25
 21
0.25
  0
LINE
  8
0
 10
11.974
 11
11.738
 20
0.25
 21
2.495
  0
LINE
  8
0
 10
11.738
 11
10.963
 20
2.495
 21
4.881
  0
LINE
  8
0
 10
10.963
 11
9.708
 20
4.881
 21
7.053
  0
LINE
  8
0
 10
9.708
 11
8.03
 20
7.053
 21
8.918
  0
LINE
  8
0
 10
8.03
 11
6
 20
8.918
 21
10.392
  0
LINE
  8
0
 10
6
 11
3.708
 20
10.392
 21
11.413
  0
LINE
  8
0
 10
3.708
 11
1.254
 20
11.413
 21
11.934
  0
LINE
  8
0
 10
1.254
 11
-1.254
 20
11.934
 21
11.934
  0
LINE
  8
0
 10
-1.254
 11
-3.708
 20
11.934
 21
11.413
  0
LINE
  8
0
 10
-3.708
 11
-6
 20
11.413
 21
10.392
  0
LINE
  8
0
 10
-6
 11
-8.03
 20
10.392
 21
8.918
  0
LINE
  8
0
 10
-8.03
 11
-9.708
 20
8.918
 21
7.053
  0
LINE
  8
0
 10
-9.708
 11
-10.963
 20
7.053
 21
4.881
  0
LINE
  8
0
 10
-10.963
 11
-11.738
 20
4.881
 21
2.495
  0
LINE
  8
0
 10
-11.738
 11
-12
 20
2.495
 21
0
  0
LINE
  8
0
 10
-12
 11
-11.738
 20
0
 21
-2.495
  0
LINE
  8
0
 10
-11.738
 11
-10.963
 20
-2.495
 21
-4.881
  0
LINE
  8
0
 10
-10.963
 11
-9.708
 20
-4.881
 21
-7.053
  0
LINE
  8
0
 10
-9.708
 11
-8.03
 20
-7.053
 21
-8.918
  0
LINE
  8
0
 10
-8.03
 11
-6
 20
-8.918
 21
-10.392
  0
LINE
  8
0
 10
-6
 11
-3.708
 20
-10.392
 21
-11.413
  0
LINE
  8
0
 10
-3.708
 11
-1.254
 20
-11.413
 21
-11.934
  0
LINE
  8
0
 10
-1.254
 11
1.254
 20
-11.934
 21
-11.934
  0
LINE
  8
0
 10
1.254
 11
3.708
 20
-11.934
 21
-11.413
  0
LINE
  8
0
 10
3.708
 11
6
 20
-11.413
 21
-10.392
  0
LINE
  8
0
 10
6
 11
8.03
 20
-10.392
 21
-8.918
  0
LINE
  8
0
 10
8.03
 11
9.708
 20
-8.918
 21
-7.053
  0
LINE
  8
0
 10
9.708
 11
10.963
 20
-7.053
 21
-4.881
  0
LINE
  8
0
 10
10.963
 11
11.738
 20
-4.881
 21
-2.495
  0
LINE
  8
0
 10
11.738
 11
11.974
 20
-2.495
 21
-0.25
  0
LINE
  8
0
 10
11.974
 11
21
 20
-0.25
 21
-0.25
  0
LINE
  8
0
 10
21
 11
21
 20
-0.25
 21
-21
  0
LINE
  8
0
 10
21
 11
-21
 20
-21
 21
-21
  0
LINE
  8
0
 10
-17.1
 11
-16.3
 20
-15.5
 21
-14.114
  0
LINE
  8
0
 10
-16.3
 11
-14.7
 20
-14.114
 21
-14.114
  0
LINE
  8
0
 10
-14.7
 11
-13.9
 20
-14.114
 21
-15.5
  0
LINE
  8
0
 10
-13.9
 11
-14.7
 20
-15.5
 21
-16.886
  0
LINE
  8
0
 10
-14.7
 11
-16.3
 20
-16.886
 21
-16.886
  0
LINE
  8
0
 10
-16.3
 11
-17.1
 20
-16.886
 21
-15.5
  0
LINE
  8
0
 10
-17.1
 11
-16.3
 20
15.5
 21
16.886
  0
LINE
  8
0
 10
-16.3
 11
-14.7
 20
16.886
 21
16.886
  0
LINE
  8
0
 10
-14.7
 11
-13.9
 20
16.886
 21
15.5
  0
LINE
  8
0
 10
-13.9
 11
-14.7
 20
15.5
 21
14.114
  0
LINE
  8
0
 10
-14.7
 11
-16.3
 20
14.114
 21
14.114
  0
LINE
  8
0
 10
-16.3
 11
-17.1
 20
14.114
 21
15.5
  0
LINE
  8
0
 10
13.9
 11
14.7
 20
-15.5
 21
-14.114
  0
LINE
  8
0
 10
14.7
 11
16.3
 20
-14.114
 21
-14.114
  0
LINE
  8
0
 10
16.3
 11
17.1
 20
-14.114
 21
-15.5
  0
LINE
  8
0
 10
17.1
 11
16.3
 20
-15.5
 21
-16.886
  0
LINE
  8
0
 10
16.3
 11
14.7
 20
-16.886
 21
-16.886
  0
LINE
  8
0
 10
14.7
 11
13.9
 20
-16.886
 21
-15.5
  0
LINE
  8
0
 10
13.9
 11
14.7
 20
15.5
 21
16.886
  0
LINE
  8
0
 10
14.7
 11
16.3
 20
16.886
 21
16.886
  0
LINE
  8
0
 10
16.3
 11
17.1
 20
16.886
 21
15.5
  0
LINE
  8
0
 10
17.1
 11
16.3
 20
15.5
 21
14.114
  0
LINE
  8
0
 10
16.3
 11
14.7
 20
14.114
 21
14.114
  0
LINE
  8
0
 10
14.7
 11
13.9
 20
14.114
 21
15.5
  0
ENDSEC
  0
SECTION
  2
OBJECTS
  0
DICTIONARY
  0
ENDSEC
  0
EOF
